<svg id="Layer_1" data-name="Layer 1" xmlns="http://www.w3.org/2000/svg" viewBox="0 0 1200 1200"><defs><style>.cls-1{fill:#d0ae8f;}.cls-2{fill:#e4d4c7;}.cls-3{fill:#c59869;}</style></defs><path class="cls-1" d="M1031.5,343.6a10.35,10.35,0,0,1,0-20.7,10.35,10.35,0,1,1,0,20.7Zm0-18.7a8.35,8.35,0,1,0,8.4,8.4A8.39,8.39,0,0,0,1031.5,324.9Z"/><circle class="cls-1" cx="486.3" cy="1103.6" r="9.3"/><path class="cls-1" d="M867.9,687.8c-220.6-3-400.5-182.9-403.5-403.5a407.54,407.54,0,0,1,35.7-173C328.7,188.3,219.9,379.7,271,588.2c31.5,128.6,164.4,261.5,293,293,208.5,51.1,400-57.7,476.9-229.1A406,406,0,0,1,867.9,687.8Z"/><path d="M647.5,918.2A411.2,411.2,0,0,1,479.3,131.8l4.8-2.2-2.2,4.8A407.67,407.67,0,0,0,695,676.1a405.14,405.14,0,0,0,158.5,32h.5a404.3,404.3,0,0,0,166-35.5l4.8-2.2-2.2,4.8a411.39,411.39,0,0,1-375.1,243ZM476.1,137.6a407.18,407.18,0,1,0,540.8,540.8,406.83,406.83,0,0,1-162.8,33.7h-.5A410.76,410.76,0,0,1,442.4,301,406.28,406.28,0,0,1,476.1,137.6Z"/><path class="cls-2" d="M653.7,856.5a87.15,87.15,0,0,0-68.4-102.6,85.79,85.79,0,0,0-34.6.1,102.14,102.14,0,0,0-197.4-7.6,80.63,80.63,0,0,0-66.6,39.5A80.77,80.77,0,0,0,173.9,888.2C92.8,893,94.4,975,94.4,975H738S738,861.3,653.7,856.5Z"/><path d="M719,986H71.3v-2a107.08,107.08,0,0,1,9.5-42.5c8.9-19.3,28.1-42.8,69.1-46.2a82.83,82.83,0,0,1,53.7-108.6,81.56,81.56,0,0,1,61.3,5.6,82.17,82.17,0,0,1,65.8-38.8,104.49,104.49,0,0,1,76.5-69.9c55.4-12.3,110.6,22.2,123.9,77.1a89.87,89.87,0,0,1,33.5.3A89.28,89.28,0,0,1,635,863.7c34.2,2.8,59.5,24.2,73.3,62.2,10.6,29,10.7,57.8,10.7,58.1ZM75.3,982H715c-.2-6.9-1.7-30.8-10.4-54.8-13.7-37.6-38-57.7-72-59.6l-2.3-.1.5-2.3A85.13,85.13,0,0,0,530.2,765l-1.9.4-.4-1.9A100.12,100.12,0,0,0,334.4,756l-.4,1.4h-1.4a78.1,78.1,0,0,0-64.9,38.5l-1,1.7-1.7-.9a78.82,78.82,0,0,0-110.1,99.7L156,899l-2.8.2c-32.8,2-55.8,16.8-68.4,44A102.72,102.72,0,0,0,75.3,982Z"/><circle cx="102.9" cy="305.5" r="11.5"/><path d="M1100.2,883.9a7.8,7.8,0,1,1-7.8-7.8,7.81,7.81,0,0,1,7.8,7.8Z"/><circle cx="872.97" cy="205.96" r="12.8" transform="translate(472 1008.28) rotate(-76.72)"/><circle cx="83.3" cy="792.3" r="5.7"/><circle cx="585.9" cy="269.5" r="6.4"/><circle cx="127.1" cy="487.7" r="3.9"/><circle cx="820" cy="608.1" r="5.7"/><circle cx="672.9" cy="295" r="3.9"/><path d="M918.5,966.3c.7,5.2,1,10.4,1.2,15.6.2,2.6.2,5.2.3,7.8l.1,7.8-.1,7.8c-.1,2.6-.1,5.2-.3,7.8-.2,5.2-.6,10.4-1.3,15.6-.7-5.2-1-10.4-1.2-15.6-.2-2.6-.2-5.2-.3-7.8l-.1-7.8.1-7.8c.1-2.6.1-5.2.3-7.8C917.5,976.7,917.9,971.5,918.5,966.3Z"/><path d="M946.7,997.5a134.08,134.08,0,0,1-14.1,1.2l-7,.3-7,.1-7-.1c-2.3-.1-4.7-.1-7-.3q-7.05-.3-14.1-1.2c4.7-.7,9.4-1,14.1-1.3,2.3-.2,4.7-.2,7-.3l7-.1,7,.1c2.3.1,4.7.1,7,.3A134.33,134.33,0,0,1,946.7,997.5Z"/><polygon points="918.5 980.8 921.1 989.5 928.3 984 925.3 992.5 934.4 992.3 926.9 997.5 934.4 1002.6 925.3 1002.3 928.3 1010.9 921.1 1005.4 918.5 1014.1 916 1005.4 908.8 1010.9 911.8 1002.3 902.7 1002.6 910.2 997.5 902.7 992.3 911.8 992.5 908.8 984 916 989.5 918.5 980.8"/><path d="M226.6,1065.4c.5,4.8.7,9.5.9,14.2s.2,9.5.3,14.2-.1,9.5-.3,14.2-.4,9.5-.9,14.2c-.5-4.8-.8-9.5-.9-14.2s-.2-9.5-.3-14.2.1-9.5.3-14.2S226.1,1070.2,226.6,1065.4Z"/><path d="M247.5,1093.9c-3.5.4-7,.7-10.4.8s-7,.2-10.4.2-7-.1-10.4-.2-7-.4-10.5-.8c3.5-.4,7-.7,10.5-.8s7-.2,10.4-.2,7,.1,10.4.2A92.78,92.78,0,0,1,247.5,1093.9Z"/><polygon points="226.6 1084.2 228.1 1089.3 232.2 1086 230.5 1091 235.8 1090.9 231.4 1093.9 235.8 1096.9 230.5 1096.7 232.2 1101.7 228.1 1098.5 226.6 1103.6 225.1 1098.5 220.9 1101.7 222.6 1096.7 217.3 1096.9 221.7 1093.9 217.3 1090.9 222.6 1091 220.9 1086 225.1 1089.3 226.6 1084.2"/><path class="cls-3" d="M683.8,162.2s21.7,2.9,23.9,43.7c2.2-40.8,23.9-43.7,23.9-43.7s-21.8-2.9-23.9-43.7C705.5,159.4,683.8,162.2,683.8,162.2Z"/><path d="M696.8,207.5a1.45,1.45,0,0,1-1.5-1.4c-1.1-20.4-7.2-30.9-12.2-36-5.3-5.5-10.4-6.3-10.5-6.3a1.51,1.51,0,0,1-1.3-1.5,1.6,1.6,0,0,1,1.3-1.5h0c.1,0,5.2-.8,10.5-6.3,5-5.1,11.1-15.6,12.2-36a1.45,1.45,0,0,1,1.5-1.4h0a1.45,1.45,0,0,1,1.5,1.4c2.1,39.1,22.4,42.3,22.6,42.3a1.52,1.52,0,0,1,0,3s-5.2.8-10.4,6.3c-5,5.1-11.1,15.6-12.2,36A1.52,1.52,0,0,1,696.8,207.5Zm-19.2-45.3c5.7,2.7,15.3,10.2,19.2,30.7,3.8-20.5,13.4-28,19.2-30.7-5.7-2.7-15.3-10.2-19.2-30.7C692.9,152,683.4,159.5,677.6,162.2Z"/><path class="cls-3" d="M127.1,677.8s17.1,2.3,18.8,34.4c1.7-32.2,18.8-34.4,18.8-34.4s-17.1-2.3-18.8-34.4C144.2,675.5,127.1,677.8,127.1,677.8Z"/><path d="M137.4,713.4h0a1.28,1.28,0,0,1-1.2-1.1c-.9-16.1-5.7-24.3-9.6-28.4-4.2-4.3-8.2-5-8.2-5a1.22,1.22,0,0,1,0-2.4c.1,0,4.1-.6,8.2-5,3.9-4.1,8.7-12.3,9.6-28.4a1.2,1.2,0,0,1,1.2-1.1,1.28,1.28,0,0,1,1.2,1.1c.9,16.1,5.7,24.3,9.6,28.4,4.2,4.3,8.2,5,8.2,5a1.22,1.22,0,0,1,0,2.4s-4.1.6-8.2,5c-3.9,4.1-8.7,12.3-9.6,28.4A1.28,1.28,0,0,1,137.4,713.4Zm-15.1-35.6c4.5,2.1,12.1,8,15.1,24.2,3-16.1,10.6-22,15.1-24.2-4.5-2.1-12.1-8.1-15.1-24.2C134.3,669.7,126.8,675.6,122.3,677.8Z"/><path class="cls-2" d="M681.1,404.8a50.35,50.35,0,0,1,6.7.5c0-.8-.1-1.6-.1-2.4A66.23,66.23,0,0,1,789.4,347a66.17,66.17,0,0,1,122.5,19.4h1.3a51.29,51.29,0,0,1,51.3,50.4h0a38.62,38.62,0,0,1,38.6,38.6,38.23,38.23,0,0,1-10.2,26.1H650.8a44.3,44.3,0,0,1,30.3-76.7Z"/><path d="M979.6,494H635.8l-.6-.5A46.26,46.26,0,0,1,633,428a46.68,46.68,0,0,1,33.9-14.7h2v.1a21.12,21.12,0,0,1,2.6.2v-.1a68.28,68.28,0,0,1,68.2-68.2h0a67.53,67.53,0,0,1,34.8,9.6A68.25,68.25,0,0,1,899.4,375a53.39,53.39,0,0,1,53,50.5,40.58,40.58,0,0,1,28,68Zm-342.3-4H977.8a36.56,36.56,0,0,0-27.5-60.7h-2v-2A49.63,49.63,0,0,0,899,378.8h-3l-.3-1.6a64.19,64.19,0,0,0-118.8-18.7l-1,1.8-1.8-1.1a63.57,63.57,0,0,0-34.4-10h0a64.19,64.19,0,0,0-64.2,64.2v4.7l-2.3-.3a44.82,44.82,0,0,0-6.4-.5h-1.3a42.77,42.77,0,0,0-29.6,13.4,42.36,42.36,0,0,0,1.4,59.3Z"/><path d="M254,64.5q.9,13.05,1.2,26.1c.1,4.3.2,8.7.2,13l.1,13-.1,13c-.1,4.3-.1,8.7-.2,13-.2,8.7-.5,17.4-1.2,26.1-.6-8.7-.9-17.4-1.2-26.1-.1-4.4-.2-8.7-.2-13l-.1-13,.1-13c.1-4.3.1-8.7.2-13C253,81.8,253.4,73.2,254,64.5Z"/><path d="M279.8,116.6c-4.3.6-8.6.9-12.9,1.2-2.1.1-4.3.2-6.5.2l-6.4.1q-6.45,0-12.9-.3t-12.9-1.2c4.3-.6,8.6-.9,12.9-1.2s8.6-.3,12.9-.3l6.4.1c2.1.1,4.3.1,6.5.2C271.2,115.7,275.5,116,279.8,116.6Z"/><path d="M1109.6,514.6c.6,5.8.8,11.5,1,17.3s.3,11.5.3,17.3l-.1,8.7c-.1,2.9-.1,5.8-.2,8.6-.2,5.8-.5,11.5-1,17.3-.6-5.8-.8-11.5-1-17.3-.1-2.9-.2-5.8-.2-8.6l-.1-8.7c0-5.8.1-11.5.3-17.3S1109,520.4,1109.6,514.6Z"/><path d="M1126.7,549.2a61.27,61.27,0,0,1-8.6,1.1c-2.9.2-5.7.3-8.6.3s-5.7-.1-8.6-.3a84.26,84.26,0,0,1-8.6-1.1,61.27,61.27,0,0,1,8.6-1.1c2.9-.2,5.7-.3,8.6-.3s5.7.1,8.6.3A61.27,61.27,0,0,1,1126.7,549.2Z"/><path d="M755.1,1066.4c.5,5.8.8,11.5,1,17.3s.3,11.5.3,17.3l-.1,8.7c-.1,2.9-.1,5.8-.2,8.6-.2,5.8-.5,11.5-1,17.3-.5-5.8-.8-11.5-1-17.3-.1-2.9-.1-5.8-.2-8.6l-.1-8.7c0-5.8.1-11.5.3-17.3S754.6,1072.1,755.1,1066.4Z"/><path d="M772.2,1100.9a61.8,61.8,0,0,1-8.5,1.1c-2.8.2-5.7.3-8.6.3s-5.7-.1-8.5-.3a79,79,0,0,1-8.5-1.1,61.8,61.8,0,0,1,8.5-1.1c2.8-.2,5.7-.3,8.5-.3s5.7.1,8.6.3A79,79,0,0,1,772.2,1100.9Z"/></svg>